<?xml version="1.0" encoding="UTF-8"?><svg id="Layer_2" xmlns="http://www.w3.org/2000/svg" viewBox="0 0 43 43"><defs><style>.cls-1{fill-rule:evenodd;}</style></defs><g id="Layer_1-2"><g id="_x31_.-Pages-_x2014_-Front-Page"><g id="arkitektforeningen-frontpage-sponsored-1400"><g id="Group-17"><g id="Hero"><g id="Group-4"><g id="Group-8"><path id="Fill-3" class="cls-1" d="M29.647,38.909c.22623-.10483.49468-.00806.602.217.10483.22623.00806.49469-.217.602-.22623.10483-.49468.00806-.602-.217-.10483-.22623-.00806-.49469.217-.602ZM31.155,36.519l.043-.033.458-.151c.15319-.31109.37146-.58562.64-.805.783-.624,2.006-.696,2.768.26.778.979.33,2.224-.497,2.881-.387.309-.931.542-1.127.608l-.442-.556.08-.064c.735.11,1.063.056,1.366-.186.632-.503.552-1.417-.018-2.134-.634-.796-1.491-.94-2.043-.5-.253.2-.39.392-.454.52l.664.834c.06.076.117.078.19.075l.306-.022.064.08-1.066.848-.064-.08.076-.267c.02-.071.009-.11-.051-.186,0,0-.893-1.122-.893-1.122ZM38.395,33.578l-1.97-1.58c-.06675-.05205-.15685-.06283-.234-.028l-.39.15-.08-.064.816-1.017.08.064-.062.413c-.01568.07954.01538.16105.08.21l2.08,1.667c.135.108.181.11.284.069l.354-.158.08.064-.778.97-3.263.015,1.58,1.267c.076.06.163.055.233.028l.39-.15.08.064-.816,1.017-.08-.064.062-.413c.01568-.07954-.01538-.16105-.08-.21l-2.505-2.008.24-.298s3.899-.008,3.899-.008ZM37.52299,29.26l.09.05.003.351c.002.075.002.119.087.165l2.502,1.376c.085.047.122.024.186-.014l.3-.186.09.05-.76,1.378-.089-.05-.003-.352c-.002-.074-.002-.118-.087-.165l-2.502-1.376c-.085-.046-.122-.024-.186.015l-.3.186-.089-.05s.758-1.378.758-1.378ZM41.60099,26.828l-2.402-.786c-.092-.03-.172.006-.228.056l-.312.277-.097-.031.406-1.24.097.032.087.409c.01366.08012.07193.14539.15.168l2.534.83c.164.053.208.039.29-.036l.276-.273.097.032-.387,1.183-3.05,1.161,1.925.63c.08033.02493.16787.00381.228-.055l.312-.278.097.032-.405,1.24-.098-.032-.087-.409c-.01366-.08012-.07193-.14539-.15-.168l-3.05-.999.118-.363s3.649-1.38,3.649-1.38ZM42.52999,22.698c.096.01.122-.026.166-.087l.202-.288.102.01-.26,2.557-.696-.07.01-.097.346-.317c.131-.122.154-.185.17-.345l.06-.595-1.42-.144-.051.509c-.01.096.008.13.054.27l.112.332-.007.069-.68-.069.007-.07.165-.297c.08-.138.089-.175.097-.26l.052-.51-1.522-.154-.074.729c-.014.14-.015.204.098.372l.353.518-.01.097-.776-.188.275-2.711.101.01.14.323c.032.068.05.108.146.117l2.84.288v.001ZM42.62299,19.435l-.034-.375-1.56.141.032.36c.037.408.364.676.857.63.478-.043.742-.348.705-.756ZM39.03899,18.262l.102-.01.195.237c.048.056.09.095.186.086l2.8-.254c.096-.009.13-.055.168-.118l.149-.268.101-.009.139,1.53c.089.976-.24,1.46-.852,1.515-.553.05-.898-.475-1.01-.876l-1.227,1.015c-.131.109-.22.209-.275.317l-.073.141-.102.01-.09-.987,1.545-1.157-.02-.21-1.184.108c-.097.009-.13.055-.168.118l-.15.268-.101.009s-.133-1.465-.13299-1.465ZM40.56099,16.72c.93-.291,1.482-.91,1.27-1.589-.213-.678-1.019-.872-1.95-.581-.915.287-1.476.908-1.264,1.587.212.679,1.029.87,1.944.583ZM39.63099,13.748c1.156-.362,2.164.423,2.44,1.308.278.884-.103,2.104-1.26,2.466-1.177.369-2.15-.4-2.436-1.31-.284-.91.078-2.095,1.255-2.464h.001ZM36.44499,11.855l.089-.05.275.134c.067.03.121.048.205,0l2.441-1.394c.085-.048.096-.104.104-.177l.024-.306.089-.05,1.277,2.235-.608.348-.048-.084.108-.527c.0149-.09132-.0013-.18499-.046-.266l-.35-.612-1.267.723.307.539c.048.084.083.101.201.189l.284.204.035.06-.594.34-.035-.061-.038-.338c-.016-.159-.03-.194-.073-.269l-.307-.538-1.118.639c-.084.048-.09.157-.09.232l.007.349-.09.05s-.782-1.37-.782-1.37ZM33.58499,8.312l.334.102c.072.02.152.016.221-.052l2.137-2.107-.375-.38c-.05972-.06228-.14174-.09825-.228-.1l-.659.006-.087-.088.659-.499,2.27,2.302-.508.652-.083-.084.016-.66c0-.075-.03-.16-.098-.228l-.378-.384-2.136,2.107c-.05957.05508-.08248.13934-.059.217l.097.336-.073.072-1.124-1.14.073-.072h.001ZM32.89499,4.992l-.038,1.997c-.007.361.063.534.135.676l.078.152-.058.084-1.365-.943.059-.084c.212.042.336.062.4-.03.032-.037.052-.122.058-.255l.053-1.45-.558.125-.539.78c-.055.08-.04.135-.017.205l.11.285-.058.085-1.21-.836.059-.084.306.002c.073-.002.13-.009.185-.089l1.598-2.313c.055-.08.041-.136.017-.205l-.10999-.285.058-.085,1.21.836-.059.084-.306-.002c-.073.002-.13.009-.185.088l-.836,1.21,1.764-.43c.111-.029.171-.059.202-.103.04-.058.011-.13-.035-.234l-.08-.167.057-.084,1.184.817-.059.084c-.412-.095-.587-.144-.919-.072l-1.102.24.00099.001ZM28.67199,1.682c.038-.09.011-.124-.034-.184l-.217-.277.04-.095,2.371.99-.27.646-.089-.037-.203-.423c-.079-.162-.132-.202-.281-.264l-.552-.23-.55,1.318.473.197c.09.037.127.03.274.027l.35-.012.064.027-.263.632-.065-.027-.236-.245c-.11-.116-.142-.135-.222-.168l-.472-.197-.59,1.412.677.282c.13.054.191.074.385.015l.598-.189.09.038-.405.69-2.516-1.05.04-.095.35-.04c.074-.01.117-.016.154-.105l1.1-2.636h-.001ZM24.52199,3.879l.334-.1c.071-.023.136-.07.157-.165l.623-2.936-.522-.11c-.08374-.01972-.17188-.00533-.245.04l-.547.37-.121-.026.276-.78,3.162.673-.065.823-.116-.024-.35-.56c-.04823-.07118-.12263-.12042-.207-.137l-.527-.112-.624,2.936c-.01919.07854.00796.16116.07.213l.266.228-.02.1-1.566-.333.021-.1h.00101ZM21.83199,3.709l.008-.102.318-.151c.067-.034.106-.052.112-.15l.192-2.848c.006-.097-.03-.12-.092-.163l-.294-.192.006-.102,1.57.105-.007.102-.318.152c-.067.033-.106.052-.113.149l-.192,2.849c-.006.096.03.12.092.162l.295.193-.007.102s-1.57-.106-1.57-.106ZM19.55699,1.54l1.266,1.546c.229.28.395.367.542.428l.158.065.01.102-1.651.166-.01-.102c.19-.105.297-.17.285-.283,0-.049-.04-.126-.12-.231l-.9-1.14-.344.458.095.944c.01.096.056.13.12.166l.269.146.01.102-1.463.148-.01-.102.234-.197c.055-.049.094-.09.084-.187l-.28199-2.799c-.01-.097-.056-.13-.12-.167l-.269-.146-.01-.102,1.463-.147.01.102-.234.197c-.055.048-.094.09-.084.187l.147,1.464,1.065-1.473c.066-.093.093-.155.087-.209-.007-.07-.076-.106-.178-.155l-.17-.075-.01-.102,1.431-.144.01.102c-.375.194-.541.27-.747.54,0,0-.684.898-.68401.898ZM14.75699,1.41l-.358.117.486,1.491.343-.112c.39-.127.578-.506.424-.977-.15-.456-.506-.646-.895-.518v-.001ZM14.41399,5.167l-.032-.097.187-.242c.043-.06.073-.109.042-.201l-.873-2.674c-.03-.092-.082-.115-.152-.137l-.294-.086-.032-.097,1.46-.477c.932-.304,1.477-.091,1.668.493.172.527-.264.981-.63,1.18l1.264.97c.136.104.253.167.37.197l.155.04.032.098-.943.308-1.472-1.248-.2.065.37,1.132c.03.092.082.115.152.137l.294.085.032.098s-1.398.456-1.398.456ZM11.15399,5.265l.966-.56-1.302-1.138.337,1.698h-.001ZM10.95699,6.837c.079-.145.096-.286.056-.506l-.576-3.197.545-.316,2.476,2.09c.241.202.302.242.512.238l.19-.004.057.098-1.375.797-.057-.098.106-.16c.07-.104.128-.2.057-.321-.02983-.04633-.06659-.08781-.109-.123l-.502-.438-1.128.654.118.58c.00992.06381.0309.1254.062.182.067.116.177.134.36.127l.195-.007.054.093-1.11.644-.056-.098s.125-.235.125-.235ZM6.83699,7.84l1.974.298c.358.054.538.007.688-.046l.161-.058.076.069-1.113,1.23-.076-.068c.07-.206.106-.326.022-.402-.032-.036-.114-.067-.245-.09l-1.43-.242.05.57.704.636c.072.065.129.058.2.043l.298-.072.076.069-.987,1.09-.075-.068.042-.303c.007-.073.008-.13-.064-.196l-2.08499-1.887c-.072-.065-.129-.058-.2-.043l-.298.072-.076-.069.987-1.09.076.068-.042.304c-.008.073-.01.13.063.195l1.09.987-.197-1.806c-.013-.114-.035-.177-.075-.214-.052-.047-.128-.027-.237.005l-.176.058-.076-.069.965-1.066.076.068c-.148.397-.22.564-.191.902l.094,1.125h.00099ZM6.42699,12.295c-.238.39-.573.71-.837.864l-.722-.441.07-.115c.724-.006,1.1-.117,1.317-.47.16691-.25247.09755-.59244-.15491-.75935-.01333-.00881-.02704-.01704-.04109-.02465-.625-.382-1.795.974-2.622.468-.565-.346-.605-1.065-.302-1.561.25-.41.553-.647.73-.772l.649.396-.068.11c-.644.074-.95.12-1.133.419-.14.23-.118.534.176.713.63.385,1.75-.994,2.582-.485.648.396.702,1.093.356,1.658ZM4.83999,15.255l-.094-.04-.037-.35c-.009-.075-.014-.118-.103-.157l-2.622-1.128c-.09-.039-.124-.013-.184.032l-.28.214-.094-.04.622-1.446.094.04.037.351c.009.074.014.117.103.156l2.622,1.128c.09.039.124.013.184-.032l.28-.214.094.04-.622,1.446ZM.878,19.101l2.42.644c.096.019.17-.027.22-.083l.275-.315.1.02-.247,1.28-.101-.02-.138-.394c-.02342-.07758-.08901-.13502-.169-.148l-2.582-.692c-.169-.033-.21-.014-.282.071l-.24.305-.1-.02.251-1.301,2.835-.526-2.421-1.61.24-1.244.107.02.075.262c.05.169.087.258.333.29l2.424.294c.305.037.372-.022.472-.145l.174-.219.1.02-.316,1.634-.106-.02-.076-.256c-.054-.176-.075-.24-.316-.27l-2.451-.316,2.76,1.836-.06.312-3.181.59v.001ZM.523,23.611c-.097.005-.117.043-.152.11l-.16.314-.101.004-.11-2.568.7-.03.004.097-.297.363c-.113.14-.127.205-.12.367l.026.598,1.426-.061-.022-.512c-.004-.097-.027-.128-.092-.26l-.158-.312-.003-.07.683-.029.003.07-.12.318c-.06.148-.063.186-.06.272l.022.512,1.529-.065-.031-.733c-.006-.14-.015-.204-.15-.355l-.424-.461-.005-.097.796.074.116,2.724-.102.004-.185-.3c-.04-.062-.064-.1-.16-.095l-2.853.122v-.001ZM1.068,27.148l.117.437,3.1-.834-.1-.374c-.24-.895-.958-1.282-1.999-1.003-.952.256-1.32,1.025-1.118,1.774ZM.794,27.104c-.304-1.129.046-2.187,1.166-2.49,1.217-.326,2.116.38,2.437,1.577l.435,1.619-.099.026-.246-.252c-.053-.052-.084-.083-.177-.058l-2.757.741c-.094.026-.105.067-.125.14l-.086.341-.1.027-.448-1.67v-.001ZM4.862,31.099l-.52-.987-1.19,1.255,1.71-.268ZM6.425,31.359c-.142-.084-.282-.107-.503-.076l-3.217.448-.294-.557,2.186-2.39c.212-.234.254-.293.26-.503l.002-.19.1-.053.742,1.406-.1.053-.157-.113c-.1-.075-.193-.135-.317-.07-.04781.0278-.091.06289-.128.104l-.457.485.608,1.153.584-.095c.06401-.00715.12628-.02542.184-.054.12-.063.141-.172.142-.355v-.195l.096-.05.598,1.134-.1.052-.23-.134h.001ZM6.153,34.37l.549-1.92c.1-.348.076-.534.042-.69l-.036-.167.078-.066,1.077,1.262-.078.066c-.195-.095-.31-.146-.395-.073-.04.028-.081.105-.122.231l-.422,1.389.571.022.721-.616c.074-.063.075-.12.069-.193l-.034-.305.078-.066.955,1.118-.077.067-.296-.08c-.071-.018-.128-.026-.202.037l-2.138,1.826c-.074.063-.074.12-.068.193l.033.305-.078.066-.955-1.118.078-.067.295.08c.072.018.128.027.202-.037l1.118-.955-1.816-.036c-.114-.001-.18.013-.221.048-.053.045-.044.122-.026.235l.035.182-.078.067-.934-1.094.078-.067c.374.198.531.29.87.306,0,0,1.127.05,1.127.05ZM10.528,37.27l-.89-.674-.545,1.642,1.435-.969v.001ZM12.053,36.842c-.163-.016-.3.022-.487.145l-2.723,1.77-.503-.38.966-3.092c.093-.302.106-.373.022-.565l-.078-.174.068-.09,1.268.959-.068.09-.19-.035c-.122-.026-.232-.04-.317.07-.03175.0459-.05605.09652-.072.15l-.208.632,1.04.787.489-.334c.05472-.03366.10312-.07664.143-.127.082-.108.055-.216-.022-.382l-.082-.177.065-.086,1.023.773-.069.09s-.265-.024-.265-.02401ZM13.353,38.909c.22544.10695.3227.3755.218.602-.10734.22501-.37548.32211-.602.218-.22544-.10695-.3227-.3755-.218-.602.10693-.22488.37476-.32203.601-.218h.001ZM25.711,40.999l1.08-.274-.939-1.452-.14,1.726h-.001ZM25.091,42.456c.115-.118.17-.249.192-.47l.32-3.233.611-.155,1.809,2.687c.177.261.224.316.427.37l.184.048.028.11-1.54.39-.028-.11.146-.126c.096-.08.177-.156.142-.292-.01548-.05268-.0391-.10262-.07-.148l-.364-.558-1.263.32-.046.59c-.0076.06377-.00422.12837.01.191.033.13.134.178.312.221l.19.047.026.104-1.243.315-.028-.11.185-.19v-.001ZM21.62,41.439l1.114-.046-.621-1.614-.493,1.66ZM20.713,42.738c.137-.092.218-.209.285-.422l.979-3.098.63-.025,1.216,3.003c.12.292.155.355.342.45l.17.085.005.113-1.587.064-.005-.113.169-.093c.11-.058.205-.116.2-.256-.0049-.0551-.0184-.10908-.04-.16l-.24-.622-1.303.053-.165.568c-.02108.06108-.03124.1254-.03.19.005.135.094.201.26.28l.175.085.005.108-1.281.052-.005-.113.22-.15v.00101ZM16.362,39.154l-.676,2.413c-.02.095.025.17.08.221l.312.279-.02.1-1.277-.264.02-.1.396-.133c.07779-.02246.13599-.08726.15-.167l.726-2.574c.034-.168.016-.211-.068-.283l-.302-.244.021-.1,1.298.268.49,2.842,1.64-2.4,1.24.256-.022.106-.262.072c-.17.047-.26.084-.294.33l-.325,2.42c-.04.305.017.372.139.474l.216.177-.02.1-1.63-.338.021-.105.257-.073c.176-.052.24-.072.274-.312l.347-2.448-1.87,2.737-.311-.064-.55-3.19h0ZM13.249,34.629c.122.077.245.152.37.226,1.07-5.261,1.005-5.128,1.14-5.626.02-.07.02-.16-.087-.197-.106-.038-1.07-.27-1.178-.29-.107-.018-.117.006-.14.071-.027.083-.036.103-.045.176-.01.086-.04.133.035.153.072.02.463.084.713.146.195.048.21.067.174.228,0,0-.982,5.113-.982,5.113ZM11.57,28.774l.736.138c.11.02.201.058.229-.058.03-.108.03-.106.042-.192.017-.087,0-.11-.15-.138-.36669-.07702-.73475-.14737-1.104-.211-.153-.022-.298.072-.319.258-.018.154-.604,3.092-.713,3.64.116.122.234.241.355.36.134-.716.653-3.53.679-3.647.032-.152.113-.18.245-.15ZM16.359,27.367c.036-.212-.018-.336-.164-.373-.105-.025-5.04-1.051-5.413-1.13-.236-.046-.271.087-.308.221-.032.122-.963,4.434-1.093,5.086.107.133.215.265.326.395l.006-.023c.022-.078,1.019-4.89,1.065-5.057.05-.168.068-.202.203-.172.148.032,4.722.998,4.824,1.022.09.023.151.087.123.222-.016.097-1.277,6.552-1.509,7.74.126.065.253.128.382.19,1.594-8.173,1.52-7.903,1.558-8.12v-.001ZM19.88,36.549c-.796-.074-1.503-.23-2.368-.454l-.032.386c.9.241,1.832.405,2.79.48l.018-2.711s-.236-.002-.385.07c0,.086-.014,1.561-.023,2.23v-.001ZM32.755,31.317c.015-.716-.281-1.293-.854-1.663.004-.501.008-1.126.011-1.278,0-.061-.018-.087-.1-.088-.083,0-.552-.004-.855-.003l.049.392c.287-.002.464.008.482.008.035,0,.057.023.057.094,0,.03.003.354,0,.686-.17066-.07299-.34776-.1299-.529-.17l-.011.362c.976.266,1.361.854,1.344,1.653-.014.919-.651,1.677-1.568,1.662-.814-.012-1.484-.37-1.474-1.094.01-.558.165-.868.448-1.02.135-.05.262-.085.335-.106.097-.013.206-.018.324-.016.432.006.775.241.766.699-.005.349-.312.616-.547.613-.167-.003-.29-.042-.284-.247,0-.046.004-.067.005-.157.001-.19-.395-.093-.4.22-.005.34.33.513.746.522.494.006.882-.483.89-.96.008-.47-.325-1.052-1.09-1.064-.35-.004-.634.06-.86.178-.172.078-.41.204-.74.42-.866.56-2.07.512-3.234.46l-.1.313c.24.02.662.032.99.037,1.407.024,2.077-.228,2.46-.466-.05689.18608-.08653.37942-.088.574-.005.338.089.629.28.862-.003.399-.006,1.544-.011,1.814-.33.208-1.22.607-1.22.607l-.043.465c.573-.26,1.128-.555,1.661-.88.002-.312.007-1.129.008-1.684.304.166.7.261,1.2.27.39409.01336.7824-.09754,1.11-.317.132-.12.262-.241.39-.365.284-.357.444-.824.452-1.33299ZM21.415,11.472s.014.234.215.253c.053.008.122-.002.215,0,.094.002.143.008.203.01.062,0,.176-.292.176-.364,0-.071.02-.055-.038-.145-.052-.088-.441-.062-.517-.051-.078.01-.23.214-.255.297h.001ZM21.486,9.727c-.00194-.01871-.00701-.03697-.015-.054-.044-.123-.171-.304-.345-.306-.27-.002-.531.164-.532.311-.001.146.032.157.057.157.026,0,.09-.02.125-.073.06082-.06821.14506-.11104.236-.12.044,0,.093.014.136.035-.01035.02538-.01545.05259-.015.08-.001.112.077.18.177.181.098.001.18-.066.18-.179v-.008c0-.005-.004-.015-.004-.024ZM28.721,24.999c.145-.016.333-.295.248-.332-.194-.093-.509-.069-.595.076-.066.111-.15.344-.295.343-.126,0-.19-.235-.259-.334-.113-.168-.374-.193-.599-.097-.098.04.132.323.286.336.152.01.174-.015.276.098.101.11.18.507.312.508.13,0,.168-.405.276-.5.125-.11.204-.083.35-.098ZM27.119,26.053c.076.887.59,1.35,1.18,1.478.675.148,1.041.069,1.287.476.181.307.513.78.79,1.042.03.036.095.031.092-.014-.04-.773-.41-2.583-.578-2.902-.155-.298-.634-.382-.75-.413l-.278-.083c-.077-.024-.123-.107.01-.142.227-.055.292-.25.293-.453.004-.555-.12-1.07-1.032-1.076-.913-.006-1.102.383-1.108,1.106-.001.255.163.391.286.463.157.092.066.127.007.155-.077.034-.225.069-.2.363h.001ZM28.026,28.297c.06-.2.11-.36.118-.381.014-.048.005-.074-.025-.088-.888-.235-1.319-.907-1.412-1.82v-.003c.002-.273.308-.288.177-.4-.179-.156-.229-.349-.227-.623.005-.677.344-1.395,1.479-1.387,1.051.007,1.391.589,1.403,1.41,0,.322-.163.429-.084.449.23.055.54.173.744.486.278.422.674,2.991.586,3.593-.034.245-.242.128-.312.042-.55-.548-.823-.871-1.173-1.39-.16-.232-.472-.25-.794-.288-.027.107-.065.247-.107.403.248.003.475.005.666.009l.266.356c-1.277-.009-3.734-.026-3.87-.028l.118-.353c.078.002,1.352.004,2.447.013ZM14.594,23.311c-.007.755-.067,2.532-.076,3.027l.51.077s.052-1.241.06-2.124c.006-.575-.05-.544-.494-.98ZM15.156,22.056c-.01-.25-.244-.436-.547-.665-.01.195-.026.52-.024.749.005.275.074.305.55.688.003-.33.024-.526.02-.772h.001ZM23.695,34.16c.05-.211.066-.304.146-.592-.335-.18-.653-.385-1.071-.619-.028.397-.052,1.253-.087,1.512-.073.606-.205.699-.197.774.007.073.06.091.093.092.066.002.113.003.107.044-.006.034-.017.092-.052.113-.019.015-.089.02-.135.036-.088.029-.153.213-.176.287-.034.1-.192.224-.313.343-.072.072-.073.255-.073.255.15.03.159.134.188.134.03,0,.064-.07.195-.07l.223.002c.13.002.135.058.175.058.05,0,.037-.081.145-.093.125-.012.154-.009.262.002.152.02.103.041.177.031.08-.009.044-.067.164-.083.112-.017.132-.016.17-.13.045-.142-.172-.775-.407-.767-.051,0-.07-.03-.07-.06.002-.031.04-.038.223-.08.083-.017.065-.113.313-1.189h0ZM23.738,36.676c0-.09-.099-.12-.162-.138-.063-.02-.11-.027-.167.04-.07.087-.154.108-.194.085-.022-.016-.065-.042-.1-.043-.05812-.00785-.11707-.00718-.175.002-.038.01-.076.01-.11.053-.066.078-.123.102-.187.069-.06-.039-.1-.071-.18-.066-.107.007-.319.01-.32.146-.002.22.172.28.327.27.155-.01.136-.053.18-.129.05-.074.092-.055.138-.044.12778.03191.26256.0203.383-.033.03209-.01625.06091-.03828.085-.065.066-.064.136-.045.136-.045,0,0,.09.057.197.036.114-.025.148-.045.149-.138ZM21.723,37.141c.29-.053.31-.193.312-.36,0-.162-.183-.201-.29-.203-.182-.004-.313.009-.313.17-.003.256.019.443.291.393ZM17.985,23.907c.112-1.671.31-2.94.316-3.897.004-.507-.113-.934-.604-.938-.156,0-.333.018-.454.1.226.184.265.584.26,1.289-.005.629-.03,1.554-.106,2.844-.065,1.101-.26,5.693-.27,7.123-.002.242.044.413.775.167-.013-2.214-.01-5.324.083-6.688ZM21.138,29.247s.29.082.523.132c.108.024.547.124.91.277-.107-.306-.25-.746-.304-1.12-.056-.375-.14-.872-.135-1.546-.148.386-.383.942-.668,1.349-.26.371-.326.909-.326.909v-.001ZM25.388,17.061c-.01.178-.031.48-.149.886-.09.327-.135.464-.104.806.035.355.017.264.085.573.081.018.22.115.293.16.158.1.51.395.51.395,0,0,.326-.964.412-1.287.079-.292.118-.61.154-.818.048-.27.108-.408.292-.69-.175-.042-.554-.124-.815-.286-.22001-.14293-.41865-.31632-.59-.515-.033-.05-.059-.044-.059-.024,0,.126-.019.636-.03.8h.001ZM22.789,8.298c.393.113.451.527.533.96.02.102.079.31.067.412-.03.252-.05.599-.04.837.007.155-.02.297-.045.383-.037.117-.121.352-.075.368.044.02.249-.287.378-.61.124-.317.167-.61.171-1.276.008-1.002-.962-1.669-1.964-1.686-.887-.013-1.796.35-2.126,1.233-.113.3-.175.54-.183.993-.007.606.04,1.133.33,1.39.115.102.418.126.275-.164-.072-.153-.164-.604-.162-.904.001-.235.094-.76.213-.996.187-.385.452-.786,1.026-.78.275.005.42.052.61.042.212-.009.293-.064.408-.302.033-.078.43.058.584.1ZM24.182,33.734c-.063.159-.072.198-.127.392-.12193.42168-.23794.84506-.348,1.27-.007.026.016.061.027.07.09.085.288.968.253,1.26,0,.085-.063.102-.128.124-.142.048-.424.052-.511.058-.089.01-.148.07-.253.085-.176.025-.277,0-.344.01-.07.006-.18.071-.257.076-.313.021-.326-.08-.392-.081-.068.002-.181.113-.635.086-.147-.007-.238-.146-.236-.344-.004-.277.153-.36.277-.356.13.003.105-.21.145-.259.077-.096.288-.264.316-.3.034-.032.16-.144.148-.21-.033-.19-.084-.275-.056-.35.032-.072.164-.183.186-.224.063-.124.099-.409.119-.653.022-.224.023-1.17.056-1.63-.467-.264-1.943-1.107-2.251-1.267-.288-.146-.577-.321-.966-.526-.452-.233-.518-1.201-.557-1.95-.033-.56.005-1.45.09-2.833.079-1.362.489-2.353.581-2.656.107-.354.268-.608.27-.884.003-.473-.21-1.379-.259-1.914-.03543-.3294-.04779-.66088-.037-.992.017-.201-.138-.53-.197-.696q-.035-.102-.15-.077l-.557.129c.156.11.275.322.271.867-.006.951-.247,2.828-.312,3.922-.165,2.84-.104,7.548-.074,9.023-.005.75.091,1.094.388,1.087.266-.005.505-.075.86-.212.554-.212,1.136-.214,1.136-.214,0,0-.09-.517-.087-1.006.001-.143.007-.375.008-.572l.37.188-.003.366c-.006.748.18,1.38.18,1.38,0,0-.85-.036-1.511.201-.438.159-.643.256-1.062.246-.404-.01-.6-.275-.627-1.322-.002-.104-.015-.95-.023-2.1-.2315.07146-.47178.11049-.714.116-.364-.002-.404-.283-.392-.82.012-.656.13-4.182.13-4.182,0,0-.252.03-.48.125-.313.133-.525-.006-.556-.668-.035-.67.037-1.362.05-2.122,0-.086.005-.216.006-.308.291.3.285.334.282.793-.005.723-.046,1.158-.012,1.63.02.286.07.383.273.3.14099-.04235.2838-.07838.428-.108,0,0,.247-4.636.25-5.105.007-.922-.03-1.46-.718-1.464-.134-.001-.39.038-.46.102.458.114.422.563.415,1.55-.02485.58442-.06253,1.16823-.113,1.751-.233-.284-.287-.421-.288-.74-.003-.258.031-.63.034-1.001.008-1.248-.003-1.335-.569-1.345-.214-.005-.429.023-.429.023l-.01,1.226c-.342-.267-.388-.45-.393-.615-.00485-.19463-.00751-.38931-.008-.584,0,0-.173.006-.243.046-.074.04-.182.212-.324.338-.009.006-.019.011-.03.02.276.27.61.633.895.97.748.878,1.53,2.297,1.49,2.383-.03.072-.054.046-.104-.026-.42735-.56766-.86037-1.13102-1.299-1.69-.64-.814-1.524-1.68-1.747-1.821,0,0,.365-.178.442-.117.042.036.09.08.146.13.05119-.03627.09413-.08296.126-.137.078-.12.088-.23.146-.276.058-.048.397-.085.71-.119.377-.043.757-.07.766-.07.08-.112.35-.305.803-.302.217.002.355.023.586.1,0,0,.208-.136.474-.17.086-.01.317-.046.577.027.332-.08.889-.2.91-.204.023-.004.04-.018.028-.07-.08681-.41461-.14264-.8351-.167-1.258-.00694-.31946.01887-.63879.077-.953.026-.108-.145-.163-.169-.225-.02-.063-.18-.695-.224-.894,0-.023-.003-.036.01-.052.012-.02.066-.078.07-.06.018.041.194.48.584.932.343.404.718.6.819.662.058.033.058.042.058.118,0,.077-.044.06-.126.033-.09-.029-.524-.222-.665-.264-.114-.034-.12.249-.1.693.013.413.048.834.19,1.452.097.434.322.758.31,1.044-.008.203-.04.442.02.955.087.696.37,1.845.37,2.002-.002.16-.2.502-.268.744-.084.303-.567,1.775-.635,2.726-.085,1.188-.155,2.181-.13,2.778.021.597.071.768.135,1.078.06.314.095.496.285.62.192.119.634.344.843.458.364.198,1.427.846,2.15,1.264.688.402,1.886,1.098,2.144,1.252.172.107.223.066.289.04.16-.06.343-.047.25.05-.04142.04372-.08931.08082-.142.11-.058.033-.194.058-.187.139.002.197-.002.636.035.805.04.17.255.671.262.81-.01933.12374-.04706.24603-.083.366-.043.167-.083.308-.194.313-.138.005-.274,0-.354.006-.053.003-.048.067-.048.134,0,.104.112.138.31.142.078,0,.212-.026.287-.047.088-.027.166-.045.302-.085.2-.063.406-.135.456-.242.18-.385.146-.857.116-1.308-.032-.486.777-1.066.81-1.33.028-.242-.055-.405-.219-.517-.184-.123-.516-.092-.678-.162-.107-.045-1.332-.652-1.558-.758-.226-.104-.4-.181-.542-.335-.26-.287-.335-.516-.494-.912-.161-.399-.24-.608-.563-.78-.32-.165-1.41-.453-1.646-.5-.032-.008-.304-.061-.304-.061.08-.39.192-.853.39-1.167.253-.405.602-.944.871-1.675.16-.414.276-.92.345-1.271l.05-.266c.00439-.01495.00675-.03042.007-.046-.16449-.0138-.30904-.11449-.379-.264-.378-.024-.274-.561-.266-.986.001-.102-.013-.103-.068-.119-.052-.013-.148-.097-.264-.228-.134-.157-.148-.203-.296-.273-.208-.102-.341-.227-.308-.292.051-.11.105-.005.403.089.188.062.246.185.354.3.07958.08906.18529.15067.302.176.1.02.142.016.17.034.033.022-.008.177-.03.305-.086.583-.12.687.097.723.113.02.224-.111.244-.364.016-.198.031-.522.034-.566.002-.042.048-.066.11-.04.055.025.09.092.108.188.013.063.032.123.023.41-.014.289-.153.49-.336.584.04332.02899.09313.04685.145.052.182.023.393-.236.41-.486.02-.199-.053-.574-.084-.776-.022-.13.54-.464.592-.492.04-.019.147-.033.166.01.021.041.01.057-.153.242-.158.189-.265.202-.266.348-.007.228.03.374.018.66-.00896.16116-.06187.31678-.153.45-.375.62-.446,1.667-.406,2.57.04.93.1,1.357.186,1.472.09.112.2.17.209.216.01.042-.047.557-.006.8.037.026.07.047.098.073.31.267.322.329.491.753.304.75.381.899.927,1.165.102-.26047.18554-.5278.25-.8.134-.636.107-.787-.051-1.392-.03796-.15128-.08573-.29993-.143-.445-.047-.112-.117-.098-.191-.064-.055.025-.13.052-.188.076-.093.038-.086-.12-.053-.151.132-.128.389-.266.4-.61.011-.341.546-2.012.619-2.546.08-.561.255-2.266.26-2.78.006-.534-.112-1.176-.166-1.477-.01632.00749-.03301.01417-.05.02-.14356.0588-.30859.00506-.39-.127-.14635-.20276-.24077-.4383-.275-.686-.064,0-.143,0-.208-.09-.179-.244-.134-.38.042-.607.079-.101.522-.534.586-.601.014-.017.042-.05.023-.116-.0702-.33168-.114-.6684-.131-1.007,0-.105.057-.195.133-.428.115-.34.126-.634.142-1.095.023-.483.025-.689.02-.855,0-.009,0-.02-.003-.03l-.127.126c-.21.204-.657.412-.699.429-.044.017-.073.038-.093.017-.02-.024.01-.04.05-.067.129-.098.372-.334.555-.568.147-.194.304-.443.363-.545.032-.05.047-.094.06-.088.023.003.025.015.092.054.093.058.403.051.538.022.067-.015.11.052.014.127-.13346.09795-.29353.15305-.459.158,0,.002.005.004.005.006.08.204.353.48.79.818.34.262.668.29.792.321.215.052.411.132.5.17.034.017.04.037.018.063-.057.068-.178.22-.3.398-.107.155-.12.26-.156.4-.188.67065-.39677,1.3353-.626,1.993-.08.207-.102.297-.114.344-.053.183.028.283-.42-.068-.09-.07-.356-.285-.469-.356-.152-.097-.189-.14-.303-.04-.034.03-.528.525-.557.562-.077.1-.103.144-.097.217.005.06.06.12.097.083.041-.036.28-.266.348-.327.15-.14.403-.16.204.047-.042.042-.304.34-.327.372-.05477.07521-.06324.17461-.022.258.042.11.159.371.187.409.037.047.068.076.156.022.069-.039.471-.268.507-.286.195-.104.242-.082.338.009.103.095.109.125.226.12.157-.003.772-.8.94-1.032.227-.313.601-.769.974-1.65.374-.878.525-1.293.526-1.357.003-.082-.53-.967-.84-1.276-.302-.303-1.157-.939-1.236-1.26-.083-.355-.494-.721-.715-.897-.222-.182-.712-.557-.908-.633-.325-.124-.763-.106-.929-.107-.183-.004-.645-.165-.969-.298-.09-.038-.289-.14-.287-.322l-.004-.333-.078.077c-.216.201-.547.37-.686.368-.256-.004-.586-.194-.706-.285-.12-.09-.345-.263-.345-.349,0-.074.004-.19.197-.03.197.162.406.328.828.335.422.009.74-.49.936-.772.197-.283.297-.677.294-.867,0-.114.002-.257.007-.4-.002-.145-.032-.187-.115-.205-.027-.004-.105-.002-.176-.018-.1,0-.177-.062-.177-.161.00041-.03427.01009-.06778.028-.097-.01654-.00264-.03325-.00398-.05-.004-.207-.001-.336.121-.337.281,0,.146.079.846.072.916-.007.07-.106.115-.18.114-.078,0-.258-.046-.322-.058-.064-.013-.07.011-.11.023-.05118.01343-.105.01308-.156-.001-.049-.018-.048-.048-.035-.082.011-.035.066-.079.116-.078l.384.007c.045,0,.068-.035.076-.087,0,0-.044-.482-.042-.814.002-.33.314-.467.531-.465.32.002.421.18.459.29.021.054.053.044.064.017.002-.008.002-.019.002-.027.01-.086-.036-.257-.064-.346-.085-.284-.05-.584-.455-.719-.06843-.023-.13783-.04302-.208-.06-.136.209-.253.37-1.161.281-.506-.05-.621.15-.819.522-.073.142-.16.503-.168.896-.008.395.147.904.2,1.047.06.158.209.284.208.354,0,.067-.013.65-.008.702.01.14-.011.149.066.203.068.047.128.094.177.138.036.03-.051.227-.15.18-.07037-.03329-.13764-.07278-.201-.118-.033-.022-.09-.03-.156-.001-.088.032-.675.334-1.031.395-.317.056-.932.086-1.289.346-.27.197-.414.573-.417,1.156.003.243.08.474.124.636.047.16.062.272.038.37-.07127.32477-.11873.65432-.142.986-.01984.18138-.02152.36429-.005.546.033.216.099.379.117.447.023.07-.03.096-.217.129-.113.02-1.228.206-1.757.352-.704.2-.913.264-1.042.34-.085.05-.163.092-.241.139-.1.062-.236.161-.369.127-.141-.037-.215-.082-.307-.112-.31787-.10621-.64307-.18909-.973-.248-.275-.04-.403-.05-.621.005-.2.053-.307.14-.348.288-.023.09-.055.714-.05.831.004.103.246.58.443.808.044.052.283-.035.32.018.037.055-.03.133-.144.16-.114.026-.263.055-.35-.01-.067-.052-.518-.566-.563-.832-.022-.134.036-.936.062-1.031.073-.253.223-.39.546-.474.226-.056.442-.066.754-.034.291.033.75.126.87.167.192.062.334.11.408.107.067-.003.184-.1.318-.18.21-.122.872-.368,1.278-.468.6-.146,1.446-.276,1.483-.283q.09-.015.077-.075c-.04678-.26498-.05855-.53496-.035-.803.038-.376.08-.765.116-.896.022-.1-.001-.202-.041-.381-.041-.179-.126-.444-.128-.649-.014-.596.203-1.151.571-1.4.347-.235.997-.304,1.445-.38.3-.05.804-.314.886-.362.064-.034.136-.072.154-.22.006-.04.011-.583-.018-.583l-.162-.001c-.076,0-.423.018-.67-.24-.248-.256-.38-.881-.375-1.517.004-.456.074-.74.227-1.11.377-.911,1.145-1.5,2.677-1.473,1.057.017,2.082.916,2.087,2,.001.496-.059,1.074-.187,1.402-.132.33-.584.961-.682.97-.048.002-.147-.148-.226-.034,0,0-.003.56,0,.585.003.109.056.147.266.224.125.048.423.18.597.183.177.003.744.01,1.077.142.333.131.942.55,1.12.715.173.165.63.519.735.898.095.333.86.87,1.181,1.166.321.297.804,1.12.89,1.323.089.203.099.227.097.292,0,.067-.217.518-.62,1.514-.303.749-.723,1.246-.932,1.54-.077.108-1.03,1.201-1.2,1.258-.221.072-.367-.07-.523-.216-.026-.023-.098.027-.194.096.078.27.191,1.043.213,1.71.014.489-.206,2.538-.277,2.944-.118.724-.487,2.114-.555,2.293-.055.137-.147.44-.059.654.111.268.296.899.291,1.32-.00795.38262-.07611.7616-.202,1.123-.05581.17808-.12124.35301-.196.524.454.213.889.426,1.237.589.19.092.5.02.853.248.277.175.313.372.284.69-.041.418-.818.995-.815,1.416.003.42-.056.996-.157,1.325-.047.145-.264.261-.663.358-.182.043-.516.14-.724.155-.27.023-.554-.05-.552-.336,0-.075.02-.317.115-.336.057-.008.359.003.435-.047.082-.054.071-.169.077-.372.004-.141-.255-.51-.327-.888-.023-.118-.03-.506-.04-.66-.01-.207-.05-.239-.252-.36ZM21.291,30.702c.054.028.196.142.347.229.151.085.375.187.61.222.119.015.168-.038.168-.078s-.026-.04-.095-.056c-.067-.018-.178-.066-.378-.213-.17078-.12075-.36728-.20018-.574-.232-.16-.02-.25-.012-.283-.013-.069,0-.075.09-.004.091.053,0,.15.02.209.05ZM25.881,33.979c.1357-.15567.14647-.38426.026-.552-.036-.054-.107-.035-.11.02-.007.07-.007.105-.01.21-.00741.07284-.03513.14214-.08.2-.059.08-.158.175-.407.191-.045.006-.042.06.02.087.15.063.404.052.561-.15601ZM15.659,23.989c.058.038.185.019.074-.08-.115-.098-1.13-1.093-1.79-2.16-.37007-.59904-.67641-1.23517-.914-1.898-.008-.023-.032-.063-.078-.062l-.39.043c.166.508.314.95.853,1.793.61.95,2.16,2.311,2.245,2.364ZM12.122,19.075c-.133.066-.152.126-.13.255.054.27.07.308.327.284.257-.022.365-.046.701-.125.26-.061.365-.162.446-.093.149.124.38-.053.483-.15.1-.103.105-.116.054-.14-.049-.03-.332.05-.398.065-.108.022-.156-.091-.209-.087-.113.01-.229.091-.561.187-.18863.05588-.37985.1026-.573.14-.048.005-.07,0-.092-.08-.023-.08.01-.098.064-.122.23077-.11918.45883-.24355.684-.373.11-.071.195-.123.223-.179.047-.096-.027-.113-.306-.086-.16888.01668-.33756.03535-.506.056-.068.008-.122.03-.09.133.03.105.074.184-.117.315ZM14.698,28.469c.044.011.07-.007.082-.05.01-.042.092-.485.105-.536.012-.048,0-.084-.05-.095-.045-.013-.264-.054-.296-.062-.04514-.00937-.09144.00963-.117.048-.018.029-.087.526-.102.57-.01.044.017.053.056.064.04.007.275.047.322.06v.001ZM13.783,28.241c.047.01.069-.033.075-.073.006-.038.096-.45.104-.484.004-.033-.063-.052-.096-.06-.036-.004-.286-.058-.286-.058-.054-.014-.093-.003-.105.047-.014.062-.07.404-.082.459-.011.047.017.1.048.112.033.013.294.045.342.057ZM12.738,28.004c.062,0,.06-.048.07-.09.017-.051.093-.318.114-.395.019-.073-.002-.086-.076-.107-.08965-.02092-.17967-.04026-.27-.058-.088-.018-.11.028-.134.117-.03236.11543-.05972.23221-.082.35-.019.089.069.11.138.128.067.02.179.054.24.055ZM11.411,27.744c.106.02.183.021.242.03.06.011.115-.03.136-.123.02-.093.083-.336.097-.401.01-.062-.02-.117-.093-.127l-.256-.039c-.104-.018-.1.024-.125.08-.025.053-.065.345-.085.43-.02.082-.02.133.084.15ZM11.914,31.781c.067.018.551.152.653.155.1.002.124-.033.142-.115.019-.085.158-.746.184-.849.027-.097.027-.156-.066-.183-.09-.027-.63-.13-.63-.13-.11-.021-.13.005-.157.081-.026.076-.17.78-.194.876-.022.102,0,.147.068.165ZM30.099,29.763l-.347-.522c-1.1-.025-1.477-.02-4.219-.05l.108.515s4.406.052,4.458.057ZM21.666,21.453c.056,0,.105-.137.137-.19.05-.095.175-.133.175-.205,0-.073-.196-.173-.318-.176-.194-.005-.36.23-.36.278,0,.08.183.105.241.162.057.056.085.13.125.13v.001ZM23.346,16.356c.04.055.154.083.245.085.094.004.192-.105.193-.229.002-.127-.04-.337-.179-.342-.139-.003-.158.06-.218.093-.063.034-.115.033-.144.033-.028,0-.043.028-.044.059,0,.09.02.146.055.158.035.014.051.088.092.143ZM19.831,16.239c.045.052.109.166.145.167.074,0,.223-.111.224-.206,0-.096-.123-.364-.21-.365-.09-.001-.37.191-.37.243,0,.043.04.048.06.06.05966.01589.11239.05104.15.1l.001.001ZM14.241,14.043c.072-.111.179-.335.179-.335,0,0,.006.176.01.237.01.198.19.318.346.293.223-.037.323-.137.28-.21-.03-.045-.108.033-.255-.087-.098-.078-.159-.342-.188-.642-.032-.304-.04-.345-.049-.415-.01-.069-.07-.06-.091.033-.01.038-.14.403-.393.737-.234.312-.51.573-.812.57-.328-.004-.703-.805-.743-1.096-.043-.29-.056-.398-.064-.44-.013-.061-.04-.06-.066-.062-.038,0-.055.009-.068.084-.02058.15498-.06335.3062-.127.449-.22.443-.435.589-.784.868-.268.215-.5.489-.984.711-.054.03-.025-.043-.025-.043,0,0,.099-.19.073-.491-.042-.441-.081-.969.015-1.472.076-.4.246-.573.361-.72.112-.145.056-.348-.062-.26-.118.09-.63.415-.695,1.009-.05476.50638-.07614,1.01581-.064,1.525.007.39-.103.626-.188.725-.104.13-.158.177-.158.21,0,.083.064.123.162.12.607-.029,1.429-.702,1.842-1.046.42-.349.507-.45.667-.838.103.625.502,1.171.907,1.174.524.004.9-.477.975-.588h-.001ZM28.678,14.005c.005-.062.01-.237.01-.237,0,0,.105.225.177.337.069.112.44.598.964.602.41.002.813-.54.925-1.164.153.393.237.495.654.851.406.347,1.22,1.035,1.827,1.07.098.004.163-.034.163-.116,0-.034-.052-.084-.155-.212-.085-.1-.191-.34-.179-.727.011-.416.018-.904-.042-1.528-.055-.594-.564-.928-.682-1.018-.116-.09-.177.112-.064.259.113.147.283.323.353.726.089.504.04,1.032-.005,1.472-.02312.1663-.0003.33575.066.49,0,0,.028.073-.029.047-.482-.23-.708-.509-.973-.73-.343-.281-.559-.43-.77-.877-.074-.152-.101-.32-.123-.45-.012-.078-.025-.085-.066-.085-.027.002-.054,0-.064.06-.01.04-.026.151-.072.44-.045.29-.43,1.085-.759,1.084-.3,0-.572-.267-.802-.58-.16583-.22663-.29476-.47807-.382-.745-.024-.09-.081-.103-.093-.032-.01.069-.022.11-.053.412-.036.301-.072.509-.178.578-.215.147-.639.047-.892.021-.048-.005-.31-.014-.054.164.26.18.716.22.944.174.158-.032.341-.09.354-.286ZM26.886,13.49c.591.039,1.178-.23,1.08-1.088-.01405-.17175-.04555-.34163-.094-.507,0,0,.175.112.597.131.438.017.77-.24.783-.757v-.02c.054.075.118.144.19.205.487.417.877.6,1.428.69.298.053.529.068.725.103.169.029.189.044.223-.157.026-.164.095-.337.14-.66.09-.64-.146-1.073-.54-1.459-.174-.167-.168.164-.049.315.207.264.232.547.23.898-.00302.19818-.02817.39541-.075.588-.01.037-.016.06-.072.053-.42248-.03333-.83445-.14847-1.213-.339-.358-.18-.892-.638-1.108-.84-.199-.181-.256-.2-.243-.085.006.072.015.165.014.29-.004.558-.158.787-.682.755-.18-.013-.49-.126-.666-.217-.13-.07-.123.016-.088.128.094.285.224.888.074,1.235-.194.462-.638.555-.938.566-.249.01-.088.15.284.172ZM15.51,7.664c2.223.016,2.242,2.025,2.236,2.97-.008,1.044.667,1.693,1.237,1.764.219.026.369-.109.291-.137-.641-.24-1.108-.778-1.102-1.688.008-1.136-.145-3.302-2.68-3.32-1.294-.009-2.224.571-3.1,2.375-.028.05486-.00824.12203.045.153.47604.24708,1.00186.38315,1.538.398,1.396.01,1.79-.555,1.808-.547.012.007-.02.251.026.535.08.494.482.668.773.743.166.043.344.069.344.069-.12.096-.235.363-.237.656-.005.69.796,1.047,1.065,1.05.12,0,.245-.02.35-.043.128-.026-.008-.087-.144-.13-.387-.117-.838-.406-.835-.874-.00505-.27739.07676-.54942.234-.778.074-.098.066-.16-.066-.155-.479-.045-1.058-.242-1.118-.65-.06-.411-.027-.804-.025-1.046,0-.073-.03-.115-.184.015-.489.485-.966.784-1.93.777-.464-.003-.782-.081-1.057-.195-.066-.027-.096-.045-.05-.136.824-1.542,1.64-1.812,2.58-1.806h.001ZM25.35,12.564c-.138.04-.279.1-.149.128.103.024.231.045.35.046.268.001,1.075-.343,1.08-1.032.002-.294-.109-.562-.23-.66,0,0,.176-.023.345-.064.296-.07.697-.24.785-.733.05-.282.02-.527.034-.534.019-.007.403.562,1.8.572.53562-.00687,1.06275-.13472,1.542-.374.0537-.03101.07423-.09829.047-.154-.848-1.816-1.771-2.409-3.065-2.418-2.536-.018-2.72,2.145-2.729,3.281-.006.91-.476,1.441-1.123,1.673-.078.026.072.164.286.141.571-.064,1.256-.702,1.264-1.747.006-.945.054-2.953,2.276-2.938.945.007,1.754.29,2.553,1.842.048.093.016.11-.05.136-.274.11-.595.183-1.056.18-.966-.007-1.437-.312-1.922-.805-.153-.131-.18-.091-.18-.017-.002.242.025.635-.04,1.046-.067.407-.647.596-1.128.634-.131-.007-.14.055-.07.154.1.143.228.4.225.781-.004.468-.463.75-.846.862h.001ZM28.26,14.748c-.048.044-.242.168-.246.566,0,.023.51.39.51.378.004-.355.044-.834.056-.867.025-.103-.04-.199-.112-.193-.047,0-.13.047-.207.116h-.001ZM28.213,19.616c-.007-.053-.307.37-.291.486.043.323.11.534.253.994.372,1.192,1.323,2.067,1.41,2.135.086.067.158.092.176.055.022-.035.015-.067-.066-.13-.082-.064-.869-1.32-1.144-2.193-.14645-.43984-.25944-.89013-.338-1.347ZM31.21,20.744c.029-.041-.018-.089-.078-.147-.146-.147-.313-.674-.444-1.085-.136-.415-.185-.934-.155-1.048.023-.08.06-.195.015-.221-.054-.031-.154.072-.182.158-.047.125-.203.477-.006,1.155.194.677.51,1.044.657,1.138.12.071.163.093.193.05ZM30.17,21.708c-.06-.018-.128.106-.137.2-.013.13-.072.511.288,1.116.362.604.762.88.932.93.13.042.178.05.194.002.018-.049-.04-.08-.11-.12-.178-.108-.474-.575-.707-.939-.24-.365-.42-.855-.419-.974,0-.08.01-.202-.04-.215h-.001ZM33.117,24.412c.015-.074-.138-.118-.224-.178-.187-.128-.706-.692-1.148-1.519-.445-.824-.48-1.286-.487-1.406-.009-.124-.044-.161-.09-.162,0,0-.11.045-.132.16-.024.114-.095.587.342,1.61.433,1.027,1.163,1.374,1.415,1.506.098.051.305.061.324-.01v-.001ZM30.079,21.272c.072.061.136.083.165.06.03-.028.025-.052-.046-.106-.07-.058-.623-1.089-.738-1.78-.07463-.49299-.09274-.9929-.054-1.49.016-.101-.024-.199-.077-.193-.035.003-.092.046-.15.119-.055.068-.276.663-.12,1.632.156.944.946,1.7,1.02,1.757v.001ZM29.782,14.959c-.059-.035-.086.008-.126.05-.045.042-.409.71-.333,1.477.082.767.516,1.348.636,1.47.113.114.168.157.203.123.034-.033.046-.076-.022-.159-.101-.12-.35-.754-.42-1.471-.074-.7.035-1.178.06-1.278.025-.102.037-.192.002-.212ZM32.167,19.431c.042-.042.001-.168-.08-.32-.085-.152-.348-.87-.573-2.099-.227-1.227-.165-1.849-.141-1.972.022-.108-.05-.124-.105-.13-.053-.005-.101-.016-.126.058-.026.076-.183.995-.023,2.085.168,1.154.471,1.861.63,2.189.158.328.374.23.418.189ZM34.992,25.245c.35.003.503-.056.653-.096.155-.041.114-.097.055-.21-.733-1.405-1.285-2.586-1.722-4.284-.414-1.616-.676-4.338-.661-4.575.015-.239-.113-.283-.246-.284-.147-.001-.173.06-.174.12,0,.058.228,3.19.646,4.742.509,1.894,1.478,3.941,1.532,4.029.113.185.136.182-.07.18-.228,0-.592-.056-1.09-.638-.82-.954-1.593-2.866-1.586-3.85.003-.336.044-.53.045-.58,0-.05-.014-.06-.049-.06-.034,0-.067.01-.067.01,0,0-.144.182-.15.948-.007,1.059.72,2.668,1.27,3.52.546.853,1.262,1.026,1.614,1.028ZM11.622,23.693c-.073.042-.13.073-.117.122.017.05.106.042.238-.001.17-.055.533-.316.9-.915.374-.6.318-.982.307-1.11-.008-.095-.073-.22-.134-.204-.052.013-.037.135-.047.215-.03.218-.202.595-.426.968-.238.387-.542.823-.722.925h.001ZM11.827,21.011c-.044,0-.084.036-.092.16-.008.12-.05.58-.507,1.4s-.983,1.377-1.167,1.502c-.092.059-.244.1-.229.175.014.069.227.065.323.015.256-.128.989-.465,1.438-1.483.45-1.02.384-1.493.362-1.607-.022-.116-.128-.162-.128-.162ZM26.009,18.913c.062.048.116.082.16.066.045-.017.058-.057-.002-.11-.064-.058-.272-.508-.326-.774-.03683-.21086-.03547-.42662.004-.637.016-.045.008-.099-.063-.095,0,0-.056.024-.088.046-.029.022-.248.248-.14.743.1.454.418.731.455.761ZM15.757,17.413c-.056.077-.042.132.002.152.042.02.094-.029.152-.1.036-.04.336-.436.418-1.063.09-.685-.125-.93-.152-.958-.03-.029-.085-.06-.085-.06-.064,0-.075.074-.06.135.018.059.021.453-.021.822-.044.369-.195.991-.254,1.073v-.001ZM14.1,18.158c.03.025.093-.008.16-.074.068-.067.778-.894.838-1.85.06-.98-.223-1.552-.283-1.615-.064-.062-.127-.101-.162-.101-.05,0-.085.099-.058.2.023.1.143.817.098,1.486-.048.7-.496,1.783-.56,1.846-.064.063-.064.087-.033.108ZM12.9,17.798c-.07.083-.059.126-.025.159.033.034.09-.008.205-.12.122-.12.565-.696.653-1.46.092-.767-.267-1.44-.308-1.483-.041-.042-.065-.085-.124-.052-.039.02-.025.11-.002.212.024.1.125.58.044,1.28-.082.716-.34,1.346-.442,1.464h-.001ZM11.936,14.835c-.023-.076-.067-.067-.122-.063-.056.007-.126.02-.107.13.024.123.074.745-.166,1.97-.247,1.225-.578,1.937-.662,2.088-.085.152-.132.278-.086.32.04.043.198.084.396-.19.238-.324.56-1.021.746-2.173.173-1.084.028-2.006.001-2.082ZM7.244,24.737c-.062.115-.101.169.048.212.15.042.3.103.655.105.351.003,1.04-.18,1.626-1.005.682-.955,1.31-2.197,1.32-3.501.003-.555-.084-.94-.204-.962-.034-.003-.051.01-.051.059,0,.051-.025.5-.028.933-.007.989-.724,2.492-1.503,3.48-.477.6-.993.624-1.22.622-.203-.001-.18.002-.066-.183.055-.084,1.18-2.107,1.631-4.015.367-1.56.76-4.668.76-4.727,0-.06-.026-.12-.17-.122-.134,0-.302.041-.292.28.014.238-.29,2.957-.726,4.566-.46,1.691-1.03,2.865-1.78,4.258ZM16.984,14.713c-.097.192-.35.45-.88.446-.453-.004-.849-.246-.845-.837.003-.46.279-.632.403-.718.056-.043.12-.078.178-.108-.405-.109-.706-.426-.626-1.06.01851-.17142.05266-.34079.102-.506,0,0-.175.113-.596.122-.437.013-.766-.249-.772-.764l.002-.023c-.05646.07504-.1212.14347-.193.204-.493.406-.89.586-1.437.669-.302.05-.531.06-.728.092-.17.028-.191.042-.221-.162-.023-.159-.09-.336-.134-.66-.077-.642.165-1.066.565-1.45.17-.166.165.166.045.315-.21.26-.241.542-.244.894-.001.208.03.445.066.589.008.035.015.06.072.056.42275-.02663.83604-.13675,1.216-.324.362-.176.902-.624,1.12-.821.2-.179.26-.2.246-.083-.01313.09444-.01981.18966-.02.285-.004.56.149.795.672.768.18-.009.493-.12.671-.208.129-.067.122.018.082.13-.096.283-.232.885-.092,1.233.192.463.632.564.93.58.212.012.13.108-.12.15-.493.158-.762.418-.765.773-.00997.29199.21865.53677.51064.54674.00845.00029.0169.00037.02536.00026.312.002.6-.133.725-.351.085-.14.114.075.042.222Z"/></g></g></g></g></g></g></g></svg>